HIERARCHY
ROOT RootJoint
{
    OFFSET   0.000000   0.000000   0.000000
    CHANNELS 6 Xposition Yposition Zposition Xrotation Yrotation Zrotation
    JOINT pelvis_lowerback
    {
        OFFSET   0.000000   0.093605   0.000000
        CHANNELS 3 Xrotation Yrotation Zrotation
        JOINT lowerback_torso
        {
            OFFSET   0.000000   0.100000   0.000000
            CHANNELS 3 Xrotation Yrotation Zrotation
            JOINT torso_head
            {
                OFFSET   0.000000   0.282350   0.000000
                CHANNELS 3 Xrotation Yrotation Zrotation
                End Site
                {
                    OFFSET   0.000000   0.192650   0.000000
                }
            }
            JOINT rTorso_Clavicle
            {
                OFFSET  -0.001000   0.157500   0.000000
                CHANNELS 3 Xrotation Yrotation Zrotation
                JOINT rShoulder
                {
                    OFFSET  -0.117647   0.000000   0.000000
                    CHANNELS 3 Xrotation Yrotation Zrotation
                    JOINT rElbow
                    {
                        OFFSET  -0.245000   0.000000   0.000000
                        CHANNELS 3 Xrotation Yrotation Zrotation
                        JOINT rWrist
                        {
                            OFFSET  -0.240000   0.000000   0.000000
                            CHANNELS 3 Xrotation Yrotation Zrotation
                            End Site
                            {
                                OFFSET  -0.116353  -0.002500   0.000000
                            }
                        }
                    }
                }
            }
            JOINT lTorso_Clavicle
            {
                OFFSET   0.001000   0.157500   0.000000
                CHANNELS 3 Xrotation Yrotation Zrotation
                JOINT lShoulder
                {
                    OFFSET   0.117647   0.000000   0.000000
                    CHANNELS 3 Xrotation Yrotation Zrotation
                    JOINT lElbow
                    {
                        OFFSET   0.245000   0.000000   0.000000
                        CHANNELS 3 Xrotation Yrotation Zrotation
                        JOINT lWrist
                        {
                            OFFSET   0.240000   0.000000   0.000000
                            CHANNELS 3 Xrotation Yrotation Zrotation
                            End Site
                            {
                                OFFSET   0.116353  -0.002500   0.000000
                            }
                        }
                    }
                }
            }
        }
    }
    JOINT rHip
    {
        OFFSET  -0.100000  -0.051395   0.000000
        CHANNELS 3 Xrotation Yrotation Zrotation
        JOINT rKnee
        {
            OFFSET   0.000000  -0.410000   0.000000
            CHANNELS 3 Xrotation Yrotation Zrotation
            JOINT rAnkle
            {
                OFFSET   0.000000  -0.390000   0.000000
                CHANNELS 3 Xrotation Yrotation Zrotation
                JOINT rToeJoint
                {
                    OFFSET   0.000000  -0.050000   0.130000
                    CHANNELS 3 Xrotation Yrotation Zrotation
                    End Site
                    {
                        OFFSET  -0.010000   0.002000   0.060000
                    }
                }
            }
        }
    }
    JOINT lHip
    {
        OFFSET   0.100000  -0.051395   0.000000
        CHANNELS 3 Xrotation Yrotation Zrotation
        JOINT lKnee
        {
            OFFSET   0.000000  -0.410000   0.000000
            CHANNELS 3 Xrotation Yrotation Zrotation
            JOINT lAnkle
            {
                OFFSET   0.000000  -0.390000   0.000000
                CHANNELS 3 Xrotation Yrotation Zrotation
                JOINT lToeJoint
                {
                    OFFSET   0.000000  -0.050000   0.130000
                    CHANNELS 3 Xrotation Yrotation Zrotation
                    End Site
                    {
                        OFFSET   0.010000   0.002000   0.060000
                    }
                }
            }
        }
    }
}
MOTION
Frames: 14
Frame Time:   0.008333
 -2.523737   0.904276   4.241108 -166.436932 -41.516120 -172.920805   6.491288  -0.299480  -0.441402   5.452273  -2.210385   1.110760  -1.381443  -0.815359   0.477846   3.128344   7.483985  10.729239  12.756880  17.180892  48.418146  -0.000046  15.588345   0.000215  13.842501   3.055854 -21.435189   3.351369  -7.774727 -11.429895  13.284633 -21.997320 -48.537172   0.000046 -22.211525   0.000135  13.158709  -4.977573  24.853224   8.573649  -8.994498  -6.294475  14.302492  -0.000098  -0.000144 -10.323420  -8.888528   2.388154  -1.641079  -0.000162  -0.000282   5.342721   9.384372  13.108090  15.445773  -0.000022  -0.000027 -10.378798  12.854891   2.099754   2.019087  -0.000000   0.000000
 -2.524266   0.904326   4.241110 -166.399344 -41.631161 -172.852188   6.474559  -0.278023  -0.436951   5.435283  -2.204771   1.110299  -1.383020  -0.814572   0.461002   3.128498   7.476800  10.739249  12.766261  17.137555  48.456238  -0.000076  15.480767   0.000249  13.851002   3.067907 -21.418835   3.339215  -7.764645 -11.442004  13.259163 -21.957060 -48.576249   0.000067 -22.160075   0.000212  13.158611  -4.975979  24.857583   8.642529  -9.016360  -6.346104  14.268594  -0.000096  -0.000143 -10.295372  -8.892520   2.385861  -1.718612  -0.000162  -0.000293   5.381214   9.322854  13.050380  15.413043  -0.000028  -0.000035 -10.381928  12.803208   2.112879   2.016099  -0.000000   0.000000
 -2.524799   0.904373   4.241113 -166.361643 -41.749647 -172.780526   6.457143  -0.256979  -0.430515   5.420381  -2.199759   1.108320  -1.385343  -0.813380   0.444589   3.132771   7.467605  10.749674  12.778295  17.094518  48.493049  -0.000104  15.377715   0.000278  13.854389   3.066429 -21.395652   3.330346  -7.754516 -11.459068  13.236091 -21.919288 -48.617196   0.000078 -22.110705   0.000269  13.153768  -4.964835  24.857063   8.709765  -9.036578  -6.400523  14.238611  -0.000093  -0.000141 -10.270655  -8.897505   2.383152  -1.795817  -0.000162  -0.000305   5.418464   9.260626  12.990472  15.380349  -0.000032  -0.000042 -10.384246  12.748304   2.123532   2.012544  -0.000001   0.000000
 -2.525322   0.904417   4.241118 -166.324929 -41.866785 -172.709922   6.440544  -0.235911  -0.422456   5.407548  -2.194238   1.106831  -1.387925  -0.812103   0.429501   3.138588   7.457749  10.760120  12.790858  17.053382  48.528257  -0.000127  15.280793   0.000299  13.855878   3.060305 -21.368946   3.324280  -7.743874 -11.478118  13.215440 -21.883824 -48.658284   0.000082 -22.064290   0.000305  13.147405  -4.952230  24.851470   8.773938  -9.055518  -6.454320  14.212338  -0.000089  -0.000136 -10.247243  -8.902880   2.380218  -1.873125  -0.000161  -0.000315   5.453582   9.199571  12.931726  15.349480  -0.000035  -0.000047 -10.386775  12.693279   2.132870   2.008824  -0.000001   0.000000
 -2.525831   0.904459   4.241124 -166.289949 -41.980435 -172.641884   6.425162  -0.214877  -0.413328   5.396587  -2.187941   1.106215  -1.390466  -0.810824   0.415666   3.144695   7.448100  10.770567  12.803008  17.014734  48.561767  -0.000144  15.190114   0.000312  13.856833   3.053133 -21.340910   3.320426  -7.732850 -11.497607  13.197092 -21.850327 -48.698366   0.000082 -22.020657   0.000325  13.140312  -4.939410  24.842351   8.834606  -9.073384  -6.506445  14.188948  -0.000083  -0.000129 -10.224768  -8.908392   2.377189  -1.949449  -0.000160  -0.000319   5.486444   9.140567  12.875094  15.320511  -0.000037  -0.000050 -10.389502  12.639545   2.140767   2.086500   0.000011  -0.000000
 -2.526322   0.904499   4.241129 -166.257137 -42.089629 -172.577070   6.411096  -0.194015  -0.403549   5.387226  -2.180896   1.106482  -1.392847  -0.809580   0.402934   3.150518   7.439052  10.780990  12.814345  16.978739  48.593566  -0.000155  15.105494   0.000318  13.857799   3.046341 -21.312660   3.318266  -7.721625 -11.516691  13.180833 -21.818589 -48.736780   0.000080 -21.979621   0.000333  13.132709  -4.926334  24.831002   8.891689  -9.090289  -6.556469  14.167759  -0.000077  -0.000120 -10.203170  -8.913937   2.374127  -2.023959  -0.000157  -0.000319   5.517017   9.084073  12.820828  15.293348  -0.000037  -0.000051 -10.392588  12.587706   2.148464   2.066521   0.000006  -0.000000
 -2.526794   0.904536   4.241133 -166.226757 -42.193943 -172.515797   6.398306  -0.173476  -0.393349   5.379193  -2.173249   1.107542  -1.395025  -0.808388   0.391175   3.155815   7.430746  10.791295  12.824737  16.945353  48.623646  -0.000161  15.026626   0.000317  13.858988   3.040473 -21.284790   3.317376  -7.710369 -11.534937  13.166407 -21.788504 -48.773211   0.000076 -21.941036   0.000332  13.124736  -4.912932  24.818342   8.945212  -9.106303  -6.604217  14.148312  -0.000071  -0.000111 -10.182518  -8.919453   2.371088  -2.096065  -0.000152  -0.000313   5.545371   9.030242  12.769077  15.267784  -0.000037  -0.000051 -10.395877  12.538098   2.155532   2.049909   0.000002  -0.000000
 -2.527293   0.904559   4.241158 -166.192791 -42.303467 -172.437975   6.377874  -0.158272  -0.388114   5.384853  -2.167194   1.104027  -1.396555  -0.801738   0.367679   3.157525   7.425258  10.810548  12.828872  16.911128  48.650738  -0.000189  14.911242   0.000344  13.862220   3.041110 -21.279955   3.306160  -7.703111 -11.553793  13.140195 -21.748544 -48.823735   0.000081 -21.877029   0.000382  13.120046  -4.905688  24.814521   8.997411  -9.116022  -6.672285  14.136850  -0.000063  -0.000099 -10.173408  -8.910985   2.386497  -2.162445  -0.000139  -0.000320   5.579251   8.963833  12.699752  15.241533  -0.000037  -0.000049 -10.398343  12.494666   2.159406   2.034495  -0.000001   0.000000
 -2.527795   0.904578   4.241193 -166.157920 -42.412952 -172.358292   6.359011  -0.143896  -0.381321   5.392459  -2.161646   1.100810  -1.397943  -0.795245   0.344753   3.160812   7.419294  10.830896  12.834057  16.877979  48.676752  -0.000214  14.801707   0.000364  13.860692   3.029408 -21.272886   3.296368  -7.696162 -11.573880  13.115892 -21.710995 -48.872415   0.000083 -21.816342   0.000413  13.111674  -4.891030  24.809485   9.048268  -9.123419  -6.742305  14.128867  -0.000055  -0.000087 -10.166716  -8.902374   2.401495  -2.227950  -0.000129  -0.000326   5.611530   8.898338  12.629385  15.218675  -0.000037  -0.000047 -10.401954  12.449649   2.161426   2.020679  -0.000004   0.000000
 -2.528291   0.904596   4.241234 -166.124113 -42.519273 -172.280765   6.341696  -0.129634  -0.372841   5.400883  -2.155857   1.099188  -1.399227  -0.789089   0.323466   3.164816   7.413169  10.851264  12.839425  16.846719  48.702062  -0.000233  14.699117   0.000374  13.858076   3.015110 -21.263087   3.288326  -7.688964 -11.593872  13.093787 -21.675644 -48.918896   0.000083 -21.759431   0.000427  13.102626  -4.874919  24.802676   9.096643  -9.130192  -6.811047  14.122837  -0.000047  -0.000075 -10.159831  -8.894770   2.415236  -2.293343  -0.000121  -0.000329   5.641879   8.835406  12.560570  15.198180  -0.000035  -0.000045 -10.406438  12.405091   2.162607   2.008389  -0.000006   0.000000
 -2.528778   0.904613   4.241278 -166.092233 -42.621113 -172.206722   6.325813  -0.115483  -0.363020   5.409672  -2.149647   1.099273  -1.400394  -0.783291   0.303795   3.168919   7.407285  10.871406  12.844521  16.817583  48.726579  -0.000246  14.603329   0.000375  13.855484   3.001150 -21.251506   3.281842  -7.681509 -11.613021  13.073824 -21.642228 -48.962846   0.000081 -21.706065   0.000427  13.093443  -4.858452  24.794630   9.142149  -9.136709  -6.877619  14.117974  -0.000041  -0.000064 -10.152244  -8.888172   2.427727  -2.358156  -0.000115  -0.000327   5.670322   8.775595  12.493992  15.179442  -0.000034  -0.000042 -10.411569  12.361975   2.163296   1.997422  -0.000007   0.000000
 -2.529265   0.904613   4.241327 -166.065046 -42.701919 -172.145567   6.310903  -0.096320  -0.346407   5.418496  -2.139214   1.102173  -1.401295  -0.777558   0.285640   3.171833   7.402764  10.888877  12.848762  16.790872  48.748782  -0.000251  14.514243   0.000364  13.853803   2.989398 -21.239900   3.278056  -7.672613 -11.631349  13.056475 -21.610216 -49.005420   0.000078 -21.655969   0.000415  13.084004  -4.841692  24.785878   9.182660  -9.140832  -6.937624  14.114740  -0.000034  -0.000053 -10.148243  -8.880658   2.440441  -2.411594  -0.000105  -0.000305   5.699671   8.706458  12.430381  15.166140  -0.000030  -0.000034 -10.380702  12.305581   2.163754   1.728594  -0.000046   0.000110
 -2.529738   0.904628   4.241370 -166.038426 -42.785635 -172.080985   6.297234  -0.082457  -0.336056   5.427522  -2.131440   1.105715  -1.402230  -0.772503   0.269120   3.174756   7.398287  10.909030  12.852378  16.766269  48.771379  -0.000253  14.431144   0.000349  13.852141   2.978403 -21.227696   3.274766  -7.664267 -11.647888  13.041115 -21.579544 -49.043531   0.000075 -21.608557   0.000398  13.073960  -4.823080  24.775993   9.222545  -9.147504  -6.999429  14.109841  -0.000030  -0.000046 -10.140491  -8.875895   2.450786  -2.469212  -0.000099  -0.000290   5.726482   8.657295  12.368486  15.154417  -0.000027  -0.000031 -10.400331  12.272128   2.164128   1.771458  -0.000027   0.000089
 -2.530215   0.904621   4.241438 -165.985764 -42.871519 -171.988331   6.302884  -0.068373  -0.327711   5.445488  -2.126814   1.102016  -1.403677  -0.750517   0.245600   3.172827   7.408264  10.934175  12.847149  16.735173  48.796603  -0.000285  14.309235   0.000373  13.854564   2.977340 -21.225828   3.262505  -7.679345 -11.661570  13.023416 -21.536873 -49.091529   0.000074 -21.531927   0.000419  13.062589  -4.818128  24.779814   9.265277  -9.150769  -7.077881  14.136933  -0.000009  -0.000017 -10.148471  -8.857460   2.469175  -2.532258  -0.000094  -0.000294   5.768647   8.603441  12.295182  15.150375  -0.000023  -0.000026 -10.422853  12.236442   2.170853   1.805507  -0.000015   0.000071
